<svg xmlns="http://www.w3.org/2000/svg" viewBox="0 0 1000 500" width="1000" height="500">
  <rect width="1000" height="500" fill="#000"/>
  <g fill="#fff">
    <!-- North America -->
    <path d="M120,140 L160,110 L220,85 L300,70 L380,75 L420,95 L440,120 L430,150 L400,180 L360,210 L310,235 L260,250 L210,255 L170,245 L140,220 L115,190 L105,165 Z"/>
    <path d="M210,255 L240,270 L270,295 L295,325 L310,360 L315,395 L300,420 L275,435 L250,430 L225,405 L205,370 L190,335 L180,300 L185,270 Z"/>
    <!-- Greenland -->
    <path d="M430,55 L470,40 L510,45 L535,65 L540,90 L520,110 L485,115 L450,100 L430,80 Z"/>
    <!-- South America -->
    <path d="M280,280 L310,270 L340,275 L365,295 L385,325 L395,365 L400,405 L395,440 L375,465 L345,475 L315,465 L295,435 L285,395 L280,355 L278,315 Z"/>
    <!-- Europe -->
    <path d="M470,115 L500,105 L530,108 L555,120 L565,140 L560,160 L540,170 L515,168 L490,155 L475,135 Z"/>
    <!-- Africa -->
    <path d="M480,175 L510,168 L540,172 L565,185 L580,210 L590,245 L592,285 L588,325 L578,365 L562,400 L540,425 L515,435 L490,428 L470,405 L458,370 L452,330 L450,290 L455,250 L465,210 Z"/>
    <!-- Middle East -->
    <path d="M555,155 L585,148 L615,155 L635,170 L642,185 L635,200 L615,208 L585,200 L565,185 Z"/>
    <!-- Russia / North Asia -->
    <path d="M565,75 L620,65 L700,58 L780,62 L850,72 L900,85 L930,100 L935,115 L920,125 L870,128 L800,122 L720,115 L640,110 L580,105 Z"/>
    <!-- South Asia (Pakistan, India) -->
    <path d="M600,150 L640,142 L680,148 L710,162 L725,182 L730,205 L720,228 L700,248 L675,258 L645,262 L620,252 L602,232 L595,210 L598,188 L608,168 Z"/>
    <!-- Southeast Asia -->
    <path d="M700,235 L730,228 L760,235 L780,250 L775,268 L755,278 L725,272 L705,258 Z"/>
    <!-- East Asia -->
    <path d="M720,130 L760,122 L800,125 L835,138 L855,155 L850,175 L825,185 L790,180 L755,168 L730,155 Z"/>
    <!-- Japan -->
    <path d="M860,155 L870,148 L878,158 L872,170 L862,168 Z"/>
    <!-- Australia -->
    <path d="M780,330 L820,322 L860,328 L885,345 L890,370 L875,390 L845,398 L815,392 L790,375 L778,355 Z"/>
    <!-- Indonesia -->
    <path d="M740,268 L770,262 L795,268 L805,278 L785,285 L755,280 Z"/>
    <!-- Antarctica -->
    <path d="M80,455 L920,450 L920,490 L80,490 Z"/>
  </g>
</svg>
